<svg xmlns="http://www.w3.org/2000/svg" viewBox="0 0 3720 3020">
	<linearGradient id="a" gradientUnits="userSpaceOnUse" x1="1871.898" y1="2274.406" x2="1871.897" y2="570.502">
		<stop offset="0" stop-color="#e8336e"/>
		<stop offset=".194" stop-color="#e5326b"/>
		<stop offset=".37" stop-color="#de2f64"/>
		<stop offset=".538" stop-color="#d12b59"/>
		<stop offset=".701" stop-color="#bf254a"/>
		<stop offset=".86" stop-color="#aa1e37"/>
		<stop offset="1" stop-color="#931725"/>
	</linearGradient>
	<path fill="url(#a)" d="M3161.688 1922.207L2651.896 879.084l-88.438-180.957c-33.241-67.796-93.197-122.523-163.117-127.27-81.979-5.567-158.333 54.902-196.159 134.415l-84.573 177.166-247.711 518.944-247.712-518.944-84.57-177.166c-37.825-79.513-114.184-139.982-196.164-134.415-69.911 4.747-129.867 59.474-163.112 127.27l-88.436 180.957-266.614 545.533-243.184 497.59c-57.593 117.451-9.065 259.35 108.383 316.955l7.085 3.471c117.451 57.596 259.354 9.072 316.946-108.373l337.902-691.404 2.837-5.805 250.907 525.632 85.454 179.025c35.37 74.354 103.682 132.697 180.277 132.697 76.59 0 144.906-58.344 180.279-132.697l85.449-179.02 250.912-525.642 340.74 697.212c57.596 117.445 199.494 165.969 316.947 108.373l7.084-3.471c117.445-57.603 165.976-199.502 108.38-316.953z"/>

	<linearGradient id="b" gradientUnits="userSpaceOnUse" x1="283.911" y1="2386.005" x2="283.911" y2="1224.622" gradientTransform="matrix(-1 0 0 1 3069.963 0)">
		<stop offset="0" stop-color="#931725" stop-opacity="0"/>
		<stop offset=".95" stop-color="#931725" stop-opacity=".95"/>
		<stop offset="1" stop-color="#931725"/>
	</linearGradient>
	<path fill="url(#b)" d="M2897.823 1390.681l18.082 28.636 243.187 497.591c57.589 117.453 9.065 259.352-108.386 316.955l-7.084 3.471c-117.453 57.596-259.359 9.074-316.947-108.371l-337.903-691.406c19.936-44.552 203.885-425.465 509.051-46.876z"/>

	<linearGradient id="c" gradientUnits="userSpaceOnUse" x1="2663.284" y1="2384.988" x2="2663.284" y2="1223.754" gradientTransform="translate(-1705.857)">
		<stop offset="0" stop-color="#931725" stop-opacity="0"/>
		<stop offset=".95" stop-color="#931725" stop-opacity=".95"/>
		<stop offset="1" stop-color="#931725"/>
	</linearGradient>
	<path fill="url(#c)" d="M845.282 1389.681l-18.082 28.636-243.187 497.591c-57.589 117.453-9.065 259.352 108.386 316.955l7.084 3.471c117.453 57.596 259.359 9.074 316.947-108.371l338.653-690.879c-19.936-44.552-204.635-425.992-509.801-47.403z"/>
</svg>
